<svg width="1140" height="342" viewBox="0 0 1140 342" fill="none" xmlns="http://www.w3.org/2000/svg">
<g clip-path="url(#clip0_1_2)">
<mask id="mask0_1_2" style="mask-type:luminance" maskUnits="userSpaceOnUse" x="0" y="0" width="1140" height="342">
<path d="M1140 0H0V342H1140V0Z" fill="white"/>
</mask>
<g mask="url(#mask0_1_2)">
<path d="M344 250C196.8 200 48.5 275 2.5 337.5L-56 410V-109H1163.5L1180.5 285.5C1128.9 214.7 929.5 208.207 821 250C712.5 291.793 491.2 300 344 250Z" fill="url(#paint0_linear_1_2)"/>
<path d="M238.88 161.728C235.936 161.728 232.96 161.152 229.952 160C226.944 158.784 224.16 157.088 221.6 154.912C219.104 152.672 217.088 150.016 215.552 146.944C214.08 143.808 213.344 140.32 213.344 136.48C213.344 132.96 214.016 129.664 215.36 126.592C216.704 123.52 218.528 120.832 220.832 118.528C223.2 116.16 225.888 114.304 228.896 112.96C231.968 111.616 235.232 110.944 238.688 110.944C243.424 110.944 247.712 112.096 251.552 114.4C255.392 116.64 258.464 119.68 260.768 123.52C263.072 127.36 264.224 131.648 264.224 136.384C264.224 140.416 263.456 144 261.92 147.136C260.384 150.272 258.368 152.928 255.872 155.104C253.376 157.28 250.624 158.912 247.616 160C244.672 161.152 241.76 161.728 238.88 161.728ZM238.688 144.16C239.648 144.16 240.736 143.936 241.952 143.488C243.232 142.976 244.32 142.144 245.216 140.992C246.176 139.84 246.656 138.272 246.656 136.288C246.656 134.688 246.304 133.312 245.6 132.16C244.96 131.008 244.032 130.112 242.816 129.472C241.6 128.832 240.192 128.512 238.592 128.512C237.184 128.512 235.904 128.864 234.752 129.568C233.6 130.208 232.672 131.136 231.968 132.352C231.264 133.504 230.912 134.848 230.912 136.384C230.912 138.304 231.36 139.84 232.256 140.992C233.152 142.144 234.208 142.976 235.424 143.488C236.64 143.936 237.728 144.16 238.688 144.16ZM288.763 160.864C285.819 160.864 283.227 160.736 280.987 160.48C278.811 160.224 276.955 159.712 275.419 158.944C273.883 158.176 272.635 157.088 271.675 155.68C270.715 154.208 270.011 152.32 269.563 150.016C269.115 147.648 268.891 144.704 268.891 141.184V98.656C268.891 97.184 269.019 95.808 269.275 94.528C269.531 93.184 270.267 92.096 271.483 91.264C272.699 90.368 274.747 89.92 277.627 89.92C280.507 89.92 282.523 90.368 283.675 91.264C284.891 92.096 285.627 93.184 285.883 94.528C286.139 95.872 286.267 97.28 286.267 98.752V140.128C286.267 141.088 286.267 141.856 286.267 142.432C286.331 142.944 286.427 143.328 286.555 143.584C286.747 143.84 287.003 144 287.323 144.064C287.707 144.064 288.219 144.064 288.859 144.064C289.691 144.064 290.555 144.192 291.451 144.448C292.411 144.64 293.211 145.312 293.851 146.464C294.555 147.552 294.907 149.472 294.907 152.224C294.907 155.104 294.555 157.152 293.851 158.368C293.211 159.584 292.411 160.288 291.451 160.48C290.491 160.736 289.595 160.864 288.763 160.864ZM337.2 160.672C334.32 160.672 332.176 160.192 330.768 159.232C329.424 158.272 328.784 157.184 328.848 155.968H330.192C329.872 156.416 329.232 157.024 328.272 157.792C327.376 158.496 326.16 159.168 324.624 159.808C323.088 160.384 321.2 160.672 318.96 160.672C316.08 160.672 313.296 160.032 310.608 158.752C307.984 157.408 305.616 155.584 303.504 153.28C301.456 150.976 299.824 148.384 298.608 145.504C297.392 142.56 296.784 139.488 296.784 136.288C296.784 133.152 297.392 130.144 298.608 127.264C299.824 124.384 301.488 121.824 303.6 119.584C305.712 117.28 308.08 115.488 310.704 114.208C313.328 112.864 316.08 112.192 318.96 112.192C321.136 112.192 322.96 112.512 324.432 113.152C325.968 113.792 327.184 114.496 328.08 115.264C329.04 116.032 329.68 116.672 330 117.184H328.944C328.88 115.584 329.52 114.336 330.864 113.44C332.272 112.544 334.416 112.096 337.296 112.096C340.176 112.096 342.192 112.544 343.344 113.44C344.56 114.272 345.296 115.36 345.552 116.704C345.808 118.048 345.936 119.424 345.936 120.832V152.032C345.936 153.44 345.808 154.816 345.552 156.16C345.296 157.504 344.56 158.592 343.344 159.424C342.192 160.256 340.144 160.672 337.2 160.672ZM321.36 143.296C322.576 143.296 323.664 142.976 324.624 142.336C325.648 141.696 326.448 140.864 327.024 139.84C327.664 138.752 327.984 137.6 327.984 136.384C327.984 135.104 327.664 133.952 327.024 132.928C326.448 131.904 325.648 131.072 324.624 130.432C323.6 129.792 322.448 129.472 321.168 129.472C319.888 129.472 318.704 129.792 317.616 130.432C316.592 131.072 315.76 131.936 315.12 133.024C314.48 134.048 314.16 135.2 314.16 136.48C314.16 137.696 314.48 138.816 315.12 139.84C315.824 140.864 316.72 141.696 317.808 142.336C318.896 142.976 320.08 143.296 321.36 143.296ZM317.52 110.08C316.368 110.08 315.376 109.6 314.544 108.64C313.712 107.68 312.976 106.208 312.336 104.224C311.504 101.536 311.344 99.552 311.856 98.272C312.368 96.928 313.776 95.904 316.08 95.2L333.744 90.016C334.896 90.016 335.888 90.496 336.72 91.456C337.552 92.416 338.256 93.888 338.832 95.872C339.728 98.432 339.888 100.384 339.312 101.728C338.736 103.072 337.36 104.096 335.184 104.8L317.52 110.08ZM352.813 175.072C352.813 175.072 352.589 175.008 352.141 174.88C351.757 174.752 351.341 174.4 350.893 173.824C350.509 173.248 350.317 172.256 350.317 170.848C350.317 169.184 350.573 168.064 351.085 167.488C351.661 166.912 352.109 166.592 352.429 166.528C352.557 166.4 353.133 165.888 354.157 164.992C355.181 164.16 355.821 162.752 356.077 160.768C355.245 160.576 354.477 160.32 353.773 160C353.133 159.616 352.557 159.2 352.045 158.752C351.149 157.856 350.605 156.736 350.413 155.392C350.285 154.048 350.221 152.768 350.221 151.552C350.285 150.144 350.445 148.768 350.701 147.424C350.957 146.016 351.725 144.864 353.005 143.968C354.349 143.008 356.557 142.528 359.629 142.528C363.085 142.528 365.517 143.232 366.925 144.64C367.821 145.536 368.333 146.656 368.461 148C368.653 149.28 368.749 150.56 368.749 151.84C368.749 152.48 368.717 153.12 368.653 153.76C368.653 154.336 368.589 154.912 368.461 155.488C368.141 159.136 367.213 162.432 365.677 165.376C364.205 168.32 362.349 170.656 360.109 172.384C357.869 174.176 355.437 175.072 352.813 175.072ZM413.774 161.728C411.982 161.728 409.966 161.504 407.726 161.056C405.55 160.672 403.406 160.096 401.294 159.328C399.246 158.496 397.55 157.536 396.206 156.448C394.862 155.36 394.19 154.112 394.19 152.704C394.19 152.064 394.318 151.36 394.574 150.592C394.894 149.76 395.31 148.864 395.822 147.904C396.334 146.944 396.974 145.92 397.742 144.832C398.19 144.192 398.702 143.712 399.278 143.392C399.918 143.072 400.654 142.912 401.486 142.912C402.638 142.912 403.758 143.168 404.846 143.68C405.934 144.128 407.022 144.672 408.11 145.312C409.198 145.888 410.318 146.432 411.47 146.944C412.686 147.392 413.966 147.616 415.31 147.616C416.526 147.616 417.422 147.488 417.998 147.232C418.638 146.976 418.958 146.592 418.958 146.08C418.958 145.568 418.734 145.152 418.286 144.832C417.902 144.512 417.326 144.256 416.558 144.064C415.854 143.808 415.022 143.584 414.062 143.392C413.102 143.2 412.078 142.976 410.99 142.72C409.902 142.464 408.782 142.144 407.63 141.76C406.158 141.312 404.718 140.736 403.31 140.032C401.902 139.264 400.622 138.272 399.47 137.056C398.382 135.84 397.486 134.368 396.782 132.64C396.142 130.912 395.822 128.8 395.822 126.304C395.822 122.976 396.59 120.192 398.126 117.952C399.662 115.712 401.934 114.016 404.942 112.864C407.95 111.712 411.662 111.136 416.078 111.136C417.166 111.136 418.254 111.2 419.342 111.328C420.43 111.456 421.518 111.648 422.606 111.904C423.758 112.16 424.878 112.512 425.966 112.96C427.118 113.344 428.27 113.792 429.422 114.304C431.79 115.328 433.006 116.768 433.07 118.624C433.134 120.416 432.462 122.304 431.054 124.288C430.286 125.504 429.486 126.432 428.654 127.072C427.886 127.648 427.086 127.936 426.254 127.936C425.23 127.936 424.11 127.648 422.894 127.072C421.678 126.496 420.398 125.92 419.054 125.344C417.71 124.768 416.366 124.48 415.022 124.48C414.254 124.48 413.582 124.576 413.006 124.768C412.494 124.896 412.11 125.12 411.854 125.44C411.598 125.696 411.47 126.016 411.47 126.4C411.47 127.104 411.694 127.68 412.142 128.128C412.654 128.512 413.294 128.832 414.062 129.088C414.894 129.344 415.822 129.568 416.846 129.76C417.934 129.952 419.086 130.144 420.302 130.336C421.966 130.592 423.662 131.008 425.39 131.584C427.182 132.096 428.814 132.864 430.286 133.888C431.758 134.912 432.942 136.32 433.838 138.112C434.734 139.904 435.182 142.24 435.182 145.12C435.182 150.56 433.358 154.688 429.71 157.504C426.126 160.32 420.814 161.728 413.774 161.728ZM463.505 161.728C460.561 161.728 457.585 161.152 454.577 160C451.569 158.784 448.785 157.088 446.225 154.912C443.729 152.672 441.713 150.016 440.177 146.944C438.705 143.808 437.969 140.32 437.969 136.48C437.969 132.96 438.641 129.664 439.985 126.592C441.329 123.52 443.153 120.832 445.457 118.528C447.825 116.16 450.513 114.304 453.521 112.96C456.593 111.616 459.857 110.944 463.313 110.944C468.049 110.944 472.337 112.096 476.177 114.4C480.017 116.64 483.089 119.68 485.393 123.52C487.697 127.36 488.849 131.648 488.849 136.384C488.849 140.416 488.081 144 486.545 147.136C485.009 150.272 482.993 152.928 480.497 155.104C478.001 157.28 475.249 158.912 472.241 160C469.297 161.152 466.385 161.728 463.505 161.728ZM463.313 144.16C464.273 144.16 465.361 143.936 466.577 143.488C467.857 142.976 468.945 142.144 469.841 140.992C470.801 139.84 471.281 138.272 471.281 136.288C471.281 134.688 470.929 133.312 470.225 132.16C469.585 131.008 468.657 130.112 467.441 129.472C466.225 128.832 464.817 128.512 463.217 128.512C461.809 128.512 460.529 128.864 459.377 129.568C458.225 130.208 457.297 131.136 456.593 132.352C455.889 133.504 455.537 134.848 455.537 136.384C455.537 138.304 455.985 139.84 456.881 140.992C457.777 142.144 458.833 142.976 460.049 143.488C461.265 143.936 462.353 144.16 463.313 144.16ZM514.828 160.672C511.756 160.672 508.876 160.064 506.188 158.848C503.564 157.632 501.26 155.936 499.276 153.76C497.292 151.52 495.756 148.928 494.668 145.984C493.58 143.04 493.036 139.84 493.036 136.384V120.736C493.036 119.264 493.164 117.888 493.42 116.608C493.676 115.264 494.412 114.176 495.628 113.344C496.844 112.448 498.892 112 501.772 112C504.716 112 506.764 112.448 507.916 113.344C509.132 114.176 509.868 115.264 510.124 116.608C510.38 117.952 510.508 119.36 510.508 120.832V136.384C510.508 137.856 510.764 139.104 511.276 140.128C511.852 141.152 512.652 141.952 513.676 142.528C514.764 143.04 516.012 143.296 517.42 143.296C518.828 143.296 520.044 143.008 521.068 142.432C522.092 141.856 522.892 141.056 523.468 140.032C524.044 139.008 524.332 137.792 524.332 136.384V120.64C524.332 119.168 524.46 117.792 524.716 116.512C524.972 115.168 525.708 114.08 526.924 113.248C528.14 112.416 530.188 112 533.068 112C536.012 112 538.06 112.448 539.212 113.344C540.428 114.176 541.164 115.264 541.42 116.608C541.676 117.952 541.804 119.328 541.804 120.736V152.32C541.804 153.728 541.676 155.072 541.42 156.352C541.164 157.632 540.428 158.688 539.212 159.52C537.996 160.352 535.948 160.768 533.068 160.768C530.956 160.768 529.292 160.512 528.076 160C526.924 159.552 526.092 158.976 525.58 158.272C525.068 157.504 524.748 156.768 524.62 156.064C524.556 155.296 524.524 154.656 524.524 154.144L526.156 154.624C526.156 154.624 525.9 154.944 525.388 155.584C524.876 156.16 524.108 156.864 523.084 157.696C522.124 158.464 520.94 159.168 519.532 159.808C518.188 160.384 516.62 160.672 514.828 160.672ZM594.193 161.728C591.249 161.728 588.273 161.152 585.265 160C582.257 158.784 579.473 157.088 576.913 154.912C574.417 152.672 572.401 150.016 570.865 146.944C569.393 143.808 568.657 140.32 568.657 136.48C568.657 132.96 569.329 129.664 570.673 126.592C572.017 123.52 573.841 120.832 576.145 118.528C578.513 116.16 581.201 114.304 584.209 112.96C587.281 111.616 590.545 110.944 594.001 110.944C598.737 110.944 603.025 112.096 606.865 114.4C610.705 116.64 613.777 119.68 616.081 123.52C618.385 127.36 619.537 131.648 619.537 136.384C619.537 140.416 618.769 144 617.233 147.136C615.697 150.272 613.681 152.928 611.185 155.104C608.689 157.28 605.937 158.912 602.929 160C599.985 161.152 597.073 161.728 594.193 161.728ZM594.001 144.16C594.961 144.16 596.049 143.936 597.265 143.488C598.545 142.976 599.633 142.144 600.529 140.992C601.489 139.84 601.969 138.272 601.969 136.288C601.969 134.688 601.617 133.312 600.913 132.16C600.273 131.008 599.345 130.112 598.129 129.472C596.913 128.832 595.505 128.512 593.905 128.512C592.497 128.512 591.217 128.864 590.065 129.568C588.913 130.208 587.985 131.136 587.281 132.352C586.577 133.504 586.225 134.848 586.225 136.384C586.225 138.304 586.673 139.84 587.569 140.992C588.465 142.144 589.521 142.976 590.737 143.488C591.953 143.936 593.041 144.16 594.001 144.16ZM654.862 160.768C652.11 160.768 650.126 160.352 648.91 159.52C647.694 158.688 646.926 157.6 646.605 156.256C646.286 154.912 646.126 153.472 646.126 151.936V102.304C646.126 100.896 646.254 99.52 646.51 98.176C646.766 96.832 647.502 95.744 648.718 94.912C649.934 94.016 652.014 93.6 654.958 93.664H671.47C676.014 93.664 680.302 94.528 684.334 96.256C688.366 97.984 691.918 100.384 694.99 103.456C698.126 106.464 700.558 109.984 702.286 114.016C704.078 118.048 704.974 122.336 704.974 126.88C704.974 131.552 704.078 135.936 702.286 140.032C700.558 144.128 698.126 147.744 694.99 150.88C691.918 153.952 688.334 156.384 684.238 158.176C680.206 159.904 675.854 160.768 671.182 160.768H654.862ZM663.694 143.2H671.47C674.35 143.2 677.006 142.496 679.438 141.088C681.87 139.616 683.79 137.696 685.198 135.328C686.67 132.896 687.406 130.208 687.406 127.264C687.406 124.32 686.67 121.632 685.198 119.2C683.79 116.768 681.87 114.848 679.438 113.44C677.006 111.968 674.318 111.232 671.374 111.232H663.694V143.2ZM748.2 160.672C745.32 160.672 743.176 160.192 741.768 159.232C740.424 158.272 739.784 157.184 739.848 155.968H741.192C740.872 156.416 740.232 157.024 739.272 157.792C738.376 158.496 737.16 159.168 735.624 159.808C734.088 160.384 732.2 160.672 729.96 160.672C727.08 160.672 724.296 160.032 721.608 158.752C718.984 157.408 716.616 155.584 714.504 153.28C712.456 150.976 710.824 148.384 709.608 145.504C708.392 142.56 707.784 139.488 707.784 136.288C707.784 133.152 708.392 130.144 709.608 127.264C710.824 124.384 712.488 121.824 714.6 119.584C716.712 117.28 719.08 115.488 721.704 114.208C724.328 112.864 727.08 112.192 729.96 112.192C732.136 112.192 733.96 112.512 735.432 113.152C736.968 113.792 738.184 114.496 739.08 115.264C740.04 116.032 740.68 116.672 741 117.184H739.944C739.88 115.584 740.52 114.336 741.864 113.44C743.272 112.544 745.416 112.096 748.296 112.096C751.176 112.096 753.192 112.544 754.344 113.44C755.56 114.272 756.296 115.36 756.552 116.704C756.808 118.048 756.936 119.424 756.936 120.832V152.032C756.936 153.44 756.808 154.816 756.552 156.16C756.296 157.504 755.56 158.592 754.344 159.424C753.192 160.256 751.144 160.672 748.2 160.672ZM732.36 143.296C733.576 143.296 734.664 142.976 735.624 142.336C736.648 141.696 737.448 140.864 738.024 139.84C738.664 138.752 738.984 137.6 738.984 136.384C738.984 135.104 738.664 133.952 738.024 132.928C737.448 131.904 736.648 131.072 735.624 130.432C734.6 129.792 733.448 129.472 732.168 129.472C730.888 129.472 729.704 129.792 728.616 130.432C727.592 131.072 726.76 131.936 726.12 133.024C725.48 134.048 725.16 135.2 725.16 136.48C725.16 137.696 725.48 138.816 726.12 139.84C726.824 140.864 727.72 141.696 728.808 142.336C729.896 142.976 731.08 143.296 732.36 143.296ZM771.301 160.768C768.421 160.768 766.373 160.352 765.157 159.52C763.941 158.624 763.205 157.504 762.949 156.16C762.757 154.816 762.661 153.44 762.661 152.032V120.448C762.661 119.04 762.789 117.696 763.045 116.416C763.301 115.136 764.037 114.112 765.253 113.344C766.469 112.512 768.517 112.096 771.397 112.096C774.021 112.096 775.909 112.448 777.061 113.152C778.277 113.792 779.045 114.592 779.365 115.552C779.685 116.512 779.813 117.408 779.749 118.24C779.749 119.008 779.813 119.488 779.941 119.68L779.173 120.256C779.109 119.296 779.461 118.336 780.229 117.376C781.061 116.416 782.117 115.552 783.397 114.784C784.741 113.952 786.149 113.312 787.621 112.864C789.157 112.352 790.597 112.096 791.941 112.096C795.141 112.096 797.957 112.704 800.389 113.92C802.821 115.136 804.837 116.864 806.437 119.104C808.101 121.28 809.349 123.84 810.181 126.784C811.013 129.728 811.429 132.928 811.429 136.384V152.128C811.429 153.536 811.301 154.912 811.045 156.256C810.789 157.6 810.053 158.688 808.837 159.52C807.685 160.352 805.637 160.768 802.693 160.768C799.749 160.768 797.669 160.352 796.453 159.52C795.237 158.624 794.501 157.504 794.245 156.16C793.989 154.816 793.861 153.44 793.861 152.032V136.384C793.861 134.912 793.573 133.664 792.997 132.64C792.485 131.616 791.717 130.848 790.693 130.336C789.733 129.76 788.517 129.472 787.045 129.472C785.637 129.472 784.389 129.76 783.301 130.336C782.277 130.912 781.477 131.712 780.901 132.736C780.325 133.76 780.037 134.976 780.037 136.384V152.128C780.037 153.536 779.909 154.912 779.653 156.256C779.397 157.6 778.661 158.688 777.445 159.52C776.293 160.352 774.245 160.768 771.301 160.768ZM826.156 160.864C823.276 160.864 821.228 160.448 820.012 159.616C818.796 158.72 818.06 157.6 817.804 156.256C817.612 154.912 817.516 153.536 817.516 152.128V120.832C817.516 119.424 817.644 118.08 817.9 116.8C818.156 115.456 818.892 114.368 820.108 113.536C821.324 112.64 823.372 112.192 826.252 112.192C829.132 112.192 831.148 112.64 832.3 113.536C833.516 114.368 834.252 115.456 834.508 116.8C834.764 118.144 834.892 119.552 834.892 121.024V152.224C834.892 153.632 834.764 155.008 834.508 156.352C834.252 157.696 833.516 158.784 832.3 159.616C831.148 160.448 829.1 160.864 826.156 160.864ZM826.156 107.488C823.276 107.488 821.228 107.072 820.012 106.24C818.796 105.344 818.06 104.224 817.804 102.88C817.612 101.536 817.516 100.16 817.516 98.752C817.516 97.28 817.644 95.904 817.9 94.624C818.156 93.28 818.892 92.192 820.108 91.36C821.324 90.528 823.372 90.112 826.252 90.112C829.132 90.112 831.148 90.56 832.3 91.456C833.516 92.288 834.252 93.376 834.508 94.72C834.764 96.064 834.892 97.44 834.892 98.848C834.892 100.256 834.764 101.632 834.508 102.976C834.252 104.32 833.516 105.408 832.3 106.24C831.148 107.072 829.1 107.488 826.156 107.488ZM861.482 160.864C858.538 160.864 855.946 160.736 853.706 160.48C851.53 160.224 849.674 159.712 848.138 158.944C846.602 158.176 845.354 157.088 844.394 155.68C843.434 154.208 842.73 152.32 842.282 150.016C841.834 147.648 841.61 144.704 841.61 141.184V98.656C841.61 97.184 841.738 95.808 841.994 94.528C842.25 93.184 842.986 92.096 844.202 91.264C845.418 90.368 847.466 89.92 850.346 89.92C853.226 89.92 855.242 90.368 856.394 91.264C857.61 92.096 858.346 93.184 858.602 94.528C858.858 95.872 858.986 97.28 858.986 98.752V140.128C858.986 141.088 858.986 141.856 858.986 142.432C859.05 142.944 859.146 143.328 859.274 143.584C859.466 143.84 859.722 144 860.042 144.064C860.426 144.064 860.938 144.064 861.578 144.064C862.41 144.064 863.274 144.192 864.17 144.448C865.13 144.64 865.93 145.312 866.57 146.464C867.274 147.552 867.626 149.472 867.626 152.224C867.626 155.104 867.274 157.152 866.57 158.368C865.93 159.584 865.13 160.288 864.17 160.48C863.21 160.736 862.314 160.864 861.482 160.864ZM894.943 161.728C891.999 161.728 889.023 161.152 886.015 160C883.007 158.784 880.223 157.088 877.663 154.912C875.167 152.672 873.151 150.016 871.615 146.944C870.143 143.808 869.407 140.32 869.407 136.48C869.407 132.96 870.079 129.664 871.423 126.592C872.767 123.52 874.591 120.832 876.895 118.528C879.263 116.16 881.951 114.304 884.959 112.96C888.031 111.616 891.295 110.944 894.751 110.944C899.487 110.944 903.775 112.096 907.615 114.4C911.455 116.64 914.527 119.68 916.831 123.52C919.135 127.36 920.287 131.648 920.287 136.384C920.287 140.416 919.519 144 917.983 147.136C916.447 150.272 914.431 152.928 911.935 155.104C909.439 157.28 906.687 158.912 903.679 160C900.735 161.152 897.823 161.728 894.943 161.728ZM894.751 144.16C895.711 144.16 896.799 143.936 898.015 143.488C899.295 142.976 900.383 142.144 901.279 140.992C902.239 139.84 902.719 138.272 902.719 136.288C902.719 134.688 902.367 133.312 901.663 132.16C901.023 131.008 900.095 130.112 898.879 129.472C897.663 128.832 896.255 128.512 894.655 128.512C893.247 128.512 891.967 128.864 890.815 129.568C889.663 130.208 888.735 131.136 888.031 132.352C887.327 133.504 886.975 134.848 886.975 136.384C886.975 138.304 887.423 139.84 888.319 140.992C889.215 142.144 890.271 142.976 891.487 143.488C892.703 143.936 893.791 144.16 894.751 144.16ZM933.498 137.344C930.618 137.344 928.57 136.96 927.354 136.192C926.138 135.424 925.402 134.464 925.146 133.312C924.89 132.096 924.762 130.848 924.762 129.568V101.248C924.762 99.968 924.89 98.72 925.146 97.504C925.402 96.288 926.138 95.296 927.354 94.528C928.57 93.696 930.65 93.28 933.594 93.28C936.538 93.28 938.586 93.696 939.738 94.528C940.954 95.296 941.69 96.32 941.946 97.6C942.202 98.816 942.33 100.064 942.33 101.344V129.664C942.33 130.944 942.202 132.192 941.946 133.408C941.69 134.56 940.954 135.52 939.738 136.288C938.522 136.992 936.442 137.344 933.498 137.344ZM933.498 160.96C929.786 160.96 927.322 160.256 926.106 158.848C924.89 157.376 924.282 154.976 924.282 151.648C924.282 150.24 924.41 148.832 924.666 147.424C924.986 146.016 925.786 144.864 927.066 143.968C928.346 143.008 930.522 142.528 933.594 142.528C937.37 142.528 939.834 143.232 940.986 144.64C942.138 146.048 942.714 148.448 942.714 151.84C942.714 153.248 942.586 154.656 942.33 156.064C942.074 157.472 941.306 158.656 940.026 159.616C938.746 160.512 936.57 160.96 933.498 160.96Z" fill="white"/>
</g>
<mask id="mask1_1_2" style="mask-type:luminance" maskUnits="userSpaceOnUse" x="0" y="0" width="1140" height="342">
<path d="M1140 0H0V342H1140V0Z" fill="white"/>
</mask>
<g mask="url(#mask1_1_2)">
<path d="M344 250C196.8 200 48.5 275 2.5 337.5L-56 410V-109H1163.5L1180.5 285.5C1128.9 214.7 929.5 208.207 821 250C712.5 291.793 491.2 300 344 250Z" fill="url(#paint1_linear_1_2)"/>
<path d="M933.498 137.344C930.618 137.344 928.57 136.96 927.354 136.192C926.138 135.424 925.402 134.464 925.146 133.312C924.89 132.096 924.762 130.848 924.762 129.568V101.248C924.762 99.968 924.89 98.72 925.146 97.504C925.402 96.288 926.138 95.296 927.354 94.528C928.57 93.696 930.65 93.28 933.594 93.28C936.538 93.28 938.586 93.696 939.738 94.528C940.954 95.296 941.69 96.32 941.946 97.6C942.202 98.816 942.33 100.064 942.33 101.344V129.664C942.33 130.944 942.202 132.192 941.946 133.408C941.69 134.56 940.954 135.52 939.738 136.288C938.522 136.992 936.442 137.344 933.498 137.344ZM933.498 160.96C929.786 160.96 927.322 160.256 926.106 158.848C924.89 157.376 924.282 154.976 924.282 151.648C924.282 150.24 924.41 148.832 924.666 147.424C924.986 146.016 925.786 144.864 927.066 143.968C928.346 143.008 930.522 142.528 933.594 142.528C937.37 142.528 939.834 143.232 940.986 144.64C942.138 146.048 942.714 148.448 942.714 151.84C942.714 153.248 942.586 154.656 942.33 156.064C942.074 157.472 941.306 158.656 940.026 159.616C938.746 160.512 936.57 160.96 933.498 160.96Z" fill="white"/>
<path d="M894.943 161.728C891.999 161.728 889.023 161.152 886.015 160C883.007 158.784 880.222 157.088 877.662 154.912C875.166 152.672 873.151 150.016 871.615 146.944C870.143 143.808 869.406 140.32 869.406 136.48C869.406 132.96 870.078 129.664 871.422 126.592C872.766 123.52 874.591 120.832 876.895 118.528C879.263 116.16 881.95 114.304 884.958 112.96C888.03 111.616 891.294 110.944 894.75 110.944C899.486 110.944 903.775 112.096 907.615 114.4C911.455 116.64 914.527 119.68 916.831 123.52C919.135 127.36 920.286 131.648 920.286 136.384C920.286 140.416 919.518 144 917.982 147.136C916.446 150.272 914.431 152.928 911.935 155.104C909.439 157.28 906.687 158.912 903.679 160C900.735 161.152 897.823 161.728 894.943 161.728ZM894.75 144.16C895.71 144.16 896.799 143.936 898.015 143.488C899.295 142.976 900.383 142.144 901.279 140.992C902.239 139.84 902.719 138.272 902.719 136.288C902.719 134.688 902.366 133.312 901.662 132.16C901.022 131.008 900.094 130.112 898.878 129.472C897.662 128.832 896.254 128.512 894.654 128.512C893.246 128.512 891.967 128.864 890.815 129.568C889.663 130.208 888.735 131.136 888.031 132.352C887.327 133.504 886.974 134.848 886.974 136.384C886.974 138.304 887.422 139.84 888.318 140.992C889.214 142.144 890.271 142.976 891.487 143.488C892.703 143.936 893.79 144.16 894.75 144.16Z" fill="white"/>
<path d="M861.482 160.864C858.538 160.864 855.946 160.736 853.706 160.48C851.53 160.224 849.674 159.712 848.138 158.944C846.602 158.176 845.354 157.088 844.394 155.68C843.434 154.208 842.73 152.32 842.282 150.016C841.834 147.648 841.61 144.704 841.61 141.184V98.656C841.61 97.184 841.738 95.808 841.994 94.528C842.25 93.184 842.986 92.096 844.202 91.264C845.418 90.368 847.466 89.92 850.346 89.92C853.226 89.92 855.242 90.368 856.394 91.264C857.61 92.096 858.346 93.184 858.602 94.528C858.858 95.872 858.986 97.28 858.986 98.752V140.128C858.986 141.088 858.986 141.856 858.986 142.432C859.05 142.944 859.146 143.328 859.274 143.584C859.466 143.84 859.722 144 860.042 144.064C860.426 144.064 860.938 144.064 861.578 144.064C862.41 144.064 863.274 144.192 864.17 144.448C865.13 144.64 865.93 145.312 866.57 146.464C867.274 147.552 867.626 149.472 867.626 152.224C867.626 155.104 867.274 157.152 866.57 158.368C865.93 159.584 865.13 160.288 864.17 160.48C863.21 160.736 862.314 160.864 861.482 160.864Z" fill="white"/>
<path d="M826.156 160.864C823.276 160.864 821.228 160.448 820.012 159.616C818.796 158.72 818.06 157.6 817.804 156.256C817.612 154.912 817.516 153.536 817.516 152.128V120.832C817.516 119.424 817.644 118.08 817.9 116.8C818.156 115.456 818.892 114.368 820.108 113.536C821.324 112.64 823.372 112.192 826.252 112.192C829.132 112.192 831.148 112.64 832.3 113.536C833.516 114.368 834.252 115.456 834.508 116.8C834.764 118.144 834.892 119.552 834.892 121.024V152.224C834.892 153.632 834.764 155.008 834.508 156.352C834.252 157.696 833.516 158.784 832.3 159.616C831.148 160.448 829.1 160.864 826.156 160.864ZM826.156 107.488C823.276 107.488 821.228 107.072 820.012 106.24C818.796 105.344 818.06 104.224 817.804 102.88C817.612 101.536 817.516 100.16 817.516 98.752C817.516 97.28 817.644 95.904 817.9 94.624C818.156 93.28 818.892 92.192 820.108 91.36C821.324 90.528 823.372 90.112 826.252 90.112C829.132 90.112 831.148 90.56 832.3 91.456C833.516 92.288 834.252 93.376 834.508 94.72C834.764 96.064 834.892 97.44 834.892 98.848C834.892 100.256 834.764 101.632 834.508 102.976C834.252 104.32 833.516 105.408 832.3 106.24C831.148 107.072 829.1 107.488 826.156 107.488Z" fill="white"/>
<path d="M771.301 160.768C768.421 160.768 766.373 160.352 765.157 159.52C763.941 158.624 763.205 157.504 762.949 156.16C762.757 154.816 762.661 153.44 762.661 152.032V120.448C762.661 119.04 762.789 117.696 763.045 116.416C763.301 115.136 764.037 114.112 765.253 113.344C766.469 112.512 768.517 112.096 771.397 112.096C774.021 112.096 775.909 112.448 777.061 113.152C778.277 113.792 779.045 114.592 779.365 115.552C779.685 116.512 779.813 117.408 779.749 118.24C779.749 119.008 779.813 119.488 779.941 119.68L779.173 120.256C779.109 119.296 779.461 118.336 780.229 117.376C781.061 116.416 782.117 115.552 783.397 114.784C784.741 113.952 786.149 113.312 787.621 112.864C789.157 112.352 790.597 112.096 791.941 112.096C795.141 112.096 797.957 112.704 800.389 113.92C802.821 115.136 804.837 116.864 806.437 119.104C808.101 121.28 809.349 123.84 810.181 126.784C811.013 129.728 811.429 132.928 811.429 136.384V152.128C811.429 153.536 811.301 154.912 811.045 156.256C810.789 157.6 810.053 158.688 808.837 159.52C807.685 160.352 805.637 160.768 802.693 160.768C799.749 160.768 797.669 160.352 796.453 159.52C795.237 158.624 794.501 157.504 794.245 156.16C793.989 154.816 793.861 153.44 793.861 152.032V136.384C793.861 134.912 793.573 133.664 792.997 132.64C792.485 131.616 791.717 130.848 790.693 130.336C789.733 129.76 788.517 129.472 787.045 129.472C785.637 129.472 784.389 129.76 783.301 130.336C782.277 130.912 781.477 131.712 780.901 132.736C780.325 133.76 780.037 134.976 780.037 136.384V152.128C780.037 153.536 779.909 154.912 779.653 156.256C779.397 157.6 778.661 158.688 777.445 159.52C776.293 160.352 774.245 160.768 771.301 160.768Z" fill="white"/>
<path d="M748.2 160.672C745.32 160.672 743.176 160.192 741.768 159.232C740.424 158.272 739.784 157.184 739.848 155.968H741.192C740.872 156.416 740.232 157.024 739.272 157.792C738.376 158.496 737.16 159.168 735.624 159.808C734.088 160.384 732.2 160.672 729.96 160.672C727.08 160.672 724.296 160.032 721.608 158.752C718.984 157.408 716.616 155.584 714.504 153.28C712.456 150.976 710.824 148.384 709.608 145.504C708.392 142.56 707.784 139.488 707.784 136.288C707.784 133.152 708.392 130.144 709.608 127.264C710.824 124.384 712.488 121.824 714.6 119.584C716.712 117.28 719.08 115.488 721.704 114.208C724.328 112.864 727.08 112.192 729.96 112.192C732.136 112.192 733.96 112.512 735.432 113.152C736.968 113.792 738.184 114.496 739.08 115.264C740.04 116.032 740.68 116.672 741 117.184H739.944C739.88 115.584 740.52 114.336 741.864 113.44C743.272 112.544 745.416 112.096 748.296 112.096C751.176 112.096 753.192 112.544 754.344 113.44C755.56 114.272 756.296 115.36 756.552 116.704C756.808 118.048 756.936 119.424 756.936 120.832V152.032C756.936 153.44 756.808 154.816 756.552 156.16C756.296 157.504 755.56 158.592 754.344 159.424C753.192 160.256 751.144 160.672 748.2 160.672ZM732.36 143.296C733.576 143.296 734.664 142.976 735.624 142.336C736.648 141.696 737.448 140.864 738.024 139.84C738.664 138.752 738.984 137.6 738.984 136.384C738.984 135.104 738.664 133.952 738.024 132.928C737.448 131.904 736.648 131.072 735.624 130.432C734.6 129.792 733.448 129.472 732.168 129.472C730.888 129.472 729.704 129.792 728.616 130.432C727.592 131.072 726.76 131.936 726.12 133.024C725.48 134.048 725.16 135.2 725.16 136.48C725.16 137.696 725.48 138.816 726.12 139.84C726.824 140.864 727.72 141.696 728.808 142.336C729.896 142.976 731.08 143.296 732.36 143.296Z" fill="white"/>
<path d="M654.862 160.768C652.11 160.768 650.126 160.352 648.91 159.52C647.694 158.688 646.925 157.6 646.605 156.256C646.285 154.912 646.125 153.472 646.125 151.936V102.304C646.125 100.896 646.253 99.52 646.509 98.176C646.765 96.832 647.501 95.744 648.717 94.912C649.933 94.016 652.013 93.6 654.957 93.664H671.47C676.014 93.664 680.301 94.528 684.333 96.256C688.365 97.984 691.918 100.384 694.99 103.456C698.126 106.464 700.557 109.984 702.285 114.016C704.077 118.048 704.974 122.336 704.974 126.88C704.974 131.552 704.077 135.936 702.285 140.032C700.557 144.128 698.126 147.744 694.99 150.88C691.918 153.952 688.333 156.384 684.237 158.176C680.205 159.904 675.853 160.768 671.181 160.768H654.862ZM663.694 143.2H671.47C674.35 143.2 677.005 142.496 679.438 141.088C681.869 139.616 683.79 137.696 685.198 135.328C686.67 132.896 687.406 130.208 687.406 127.264C687.406 124.32 686.67 121.632 685.198 119.2C683.79 116.768 681.869 114.848 679.438 113.44C677.005 111.968 674.318 111.232 671.374 111.232H663.694V143.2Z" fill="white"/>
<path d="M594.193 161.728C591.249 161.728 588.272 161.152 585.264 160C582.256 158.784 579.473 157.088 576.913 154.912C574.417 152.672 572.401 150.016 570.865 146.944C569.393 143.808 568.656 140.32 568.656 136.48C568.656 132.96 569.328 129.664 570.672 126.592C572.016 123.52 573.841 120.832 576.145 118.528C578.513 116.16 581.2 114.304 584.208 112.96C587.28 111.616 590.544 110.944 594 110.944C598.736 110.944 603.025 112.096 606.865 114.4C610.705 116.64 613.777 119.68 616.081 123.52C618.385 127.36 619.536 131.648 619.536 136.384C619.536 140.416 618.769 144 617.233 147.136C615.697 150.272 613.681 152.928 611.185 155.104C608.689 157.28 605.936 158.912 602.928 160C599.984 161.152 597.073 161.728 594.193 161.728ZM594 144.16C594.96 144.16 596.048 143.936 597.264 143.488C598.544 142.976 599.633 142.144 600.529 140.992C601.489 139.84 601.969 138.272 601.969 136.288C601.969 134.688 601.617 133.312 600.913 132.16C600.273 131.008 599.345 130.112 598.129 129.472C596.913 128.832 595.505 128.512 593.905 128.512C592.497 128.512 591.217 128.864 590.065 129.568C588.913 130.208 587.984 131.136 587.28 132.352C586.576 133.504 586.224 134.848 586.224 136.384C586.224 138.304 586.673 139.84 587.569 140.992C588.465 142.144 589.521 142.976 590.737 143.488C591.953 143.936 593.04 144.16 594 144.16Z" fill="white"/>
<path d="M514.828 160.672C511.756 160.672 508.876 160.064 506.188 158.848C503.564 157.632 501.26 155.936 499.276 153.76C497.292 151.52 495.756 148.928 494.668 145.984C493.58 143.04 493.036 139.84 493.036 136.384V120.736C493.036 119.264 493.164 117.888 493.42 116.608C493.676 115.264 494.412 114.176 495.628 113.344C496.844 112.448 498.892 112 501.772 112C504.716 112 506.764 112.448 507.916 113.344C509.132 114.176 509.868 115.264 510.124 116.608C510.38 117.952 510.508 119.36 510.508 120.832V136.384C510.508 137.856 510.764 139.104 511.276 140.128C511.852 141.152 512.652 141.952 513.676 142.528C514.764 143.04 516.012 143.296 517.42 143.296C518.828 143.296 520.044 143.008 521.068 142.432C522.092 141.856 522.892 141.056 523.468 140.032C524.044 139.008 524.332 137.792 524.332 136.384V120.64C524.332 119.168 524.46 117.792 524.716 116.512C524.972 115.168 525.708 114.08 526.924 113.248C528.14 112.416 530.188 112 533.068 112C536.012 112 538.06 112.448 539.212 113.344C540.428 114.176 541.164 115.264 541.42 116.608C541.676 117.952 541.804 119.328 541.804 120.736V152.32C541.804 153.728 541.676 155.072 541.42 156.352C541.164 157.632 540.428 158.688 539.212 159.52C537.996 160.352 535.948 160.768 533.068 160.768C530.956 160.768 529.292 160.512 528.076 160C526.924 159.552 526.092 158.976 525.58 158.272C525.068 157.504 524.748 156.768 524.62 156.064C524.556 155.296 524.524 154.656 524.524 154.144L526.156 154.624C526.156 154.624 525.9 154.944 525.388 155.584C524.876 156.16 524.108 156.864 523.084 157.696C522.124 158.464 520.94 159.168 519.532 159.808C518.188 160.384 516.62 160.672 514.828 160.672Z" fill="white"/>
<path d="M463.505 161.728C460.561 161.728 457.585 161.152 454.577 160C451.569 158.784 448.785 157.088 446.225 154.912C443.729 152.672 441.713 150.016 440.177 146.944C438.705 143.808 437.969 140.32 437.969 136.48C437.969 132.96 438.641 129.664 439.985 126.592C441.329 123.52 443.153 120.832 445.457 118.528C447.825 116.16 450.513 114.304 453.521 112.96C456.593 111.616 459.857 110.944 463.313 110.944C468.049 110.944 472.337 112.096 476.177 114.4C480.017 116.64 483.089 119.68 485.393 123.52C487.697 127.36 488.849 131.648 488.849 136.384C488.849 140.416 488.081 144 486.545 147.136C485.009 150.272 482.993 152.928 480.497 155.104C478.001 157.28 475.249 158.912 472.241 160C469.297 161.152 466.385 161.728 463.505 161.728ZM463.313 144.16C464.273 144.16 465.361 143.936 466.577 143.488C467.857 142.976 468.945 142.144 469.841 140.992C470.801 139.84 471.281 138.272 471.281 136.288C471.281 134.688 470.929 133.312 470.225 132.16C469.585 131.008 468.657 130.112 467.441 129.472C466.225 128.832 464.817 128.512 463.217 128.512C461.809 128.512 460.529 128.864 459.377 129.568C458.225 130.208 457.297 131.136 456.593 132.352C455.889 133.504 455.537 134.848 455.537 136.384C455.537 138.304 455.985 139.84 456.881 140.992C457.777 142.144 458.833 142.976 460.049 143.488C461.265 143.936 462.353 144.16 463.313 144.16Z" fill="white"/>
<path d="M413.774 161.728C411.982 161.728 409.966 161.504 407.726 161.056C405.55 160.672 403.406 160.096 401.294 159.328C399.246 158.496 397.55 157.536 396.206 156.448C394.862 155.36 394.19 154.112 394.19 152.704C394.19 152.064 394.318 151.36 394.574 150.592C394.894 149.76 395.31 148.864 395.822 147.904C396.334 146.944 396.974 145.92 397.742 144.832C398.19 144.192 398.702 143.712 399.278 143.392C399.918 143.072 400.654 142.912 401.486 142.912C402.638 142.912 403.758 143.168 404.846 143.68C405.934 144.128 407.022 144.672 408.11 145.312C409.198 145.888 410.318 146.432 411.47 146.944C412.686 147.392 413.966 147.616 415.31 147.616C416.526 147.616 417.422 147.488 417.998 147.232C418.638 146.976 418.958 146.592 418.958 146.08C418.958 145.568 418.734 145.152 418.286 144.832C417.902 144.512 417.326 144.256 416.558 144.064C415.854 143.808 415.022 143.584 414.062 143.392C413.102 143.2 412.078 142.976 410.99 142.72C409.902 142.464 408.782 142.144 407.63 141.76C406.158 141.312 404.718 140.736 403.31 140.032C401.902 139.264 400.622 138.272 399.47 137.056C398.382 135.84 397.486 134.368 396.782 132.64C396.142 130.912 395.822 128.8 395.822 126.304C395.822 122.976 396.59 120.192 398.126 117.952C399.662 115.712 401.934 114.016 404.942 112.864C407.95 111.712 411.662 111.136 416.078 111.136C417.166 111.136 418.254 111.2 419.342 111.328C420.43 111.456 421.518 111.648 422.606 111.904C423.758 112.16 424.878 112.512 425.966 112.96C427.118 113.344 428.27 113.792 429.422 114.304C431.79 115.328 433.006 116.768 433.07 118.624C433.134 120.416 432.462 122.304 431.054 124.288C430.286 125.504 429.486 126.432 428.654 127.072C427.886 127.648 427.086 127.936 426.254 127.936C425.23 127.936 424.11 127.648 422.894 127.072C421.678 126.496 420.398 125.92 419.054 125.344C417.71 124.768 416.366 124.48 415.022 124.48C414.254 124.48 413.582 124.576 413.006 124.768C412.494 124.896 412.11 125.12 411.854 125.44C411.598 125.696 411.47 126.016 411.47 126.4C411.47 127.104 411.694 127.68 412.142 128.128C412.654 128.512 413.294 128.832 414.062 129.088C414.894 129.344 415.822 129.568 416.846 129.76C417.934 129.952 419.086 130.144 420.302 130.336C421.966 130.592 423.662 131.008 425.39 131.584C427.182 132.096 428.814 132.864 430.286 133.888C431.758 134.912 432.942 136.32 433.838 138.112C434.734 139.904 435.182 142.24 435.182 145.12C435.182 150.56 433.358 154.688 429.71 157.504C426.126 160.32 420.814 161.728 413.774 161.728Z" fill="white"/>
<path d="M352.813 175.072C352.813 175.072 352.589 175.008 352.141 174.88C351.757 174.752 351.341 174.4 350.893 173.824C350.509 173.248 350.317 172.256 350.317 170.848C350.317 169.184 350.573 168.064 351.085 167.488C351.661 166.912 352.109 166.592 352.429 166.528C352.557 166.4 353.133 165.888 354.157 164.992C355.181 164.16 355.821 162.752 356.077 160.768C355.245 160.576 354.477 160.32 353.773 160C353.133 159.616 352.557 159.2 352.045 158.752C351.149 157.856 350.605 156.736 350.413 155.392C350.285 154.048 350.221 152.768 350.221 151.552C350.285 150.144 350.445 148.768 350.701 147.424C350.957 146.016 351.725 144.864 353.005 143.968C354.349 143.008 356.557 142.528 359.629 142.528C363.085 142.528 365.517 143.232 366.925 144.64C367.821 145.536 368.333 146.656 368.461 148C368.653 149.28 368.749 150.56 368.749 151.84C368.749 152.48 368.717 153.12 368.653 153.76C368.653 154.336 368.589 154.912 368.461 155.488C368.141 159.136 367.213 162.432 365.677 165.376C364.205 168.32 362.349 170.656 360.109 172.384C357.869 174.176 355.437 175.072 352.813 175.072Z" fill="white"/>
<path d="M337.2 160.672C334.32 160.672 332.176 160.192 330.768 159.232C329.424 158.272 328.784 157.184 328.848 155.968H330.192C329.872 156.416 329.232 157.024 328.272 157.792C327.376 158.496 326.16 159.168 324.624 159.808C323.088 160.384 321.2 160.672 318.96 160.672C316.08 160.672 313.296 160.032 310.608 158.752C307.984 157.408 305.616 155.584 303.504 153.28C301.456 150.976 299.824 148.384 298.608 145.504C297.392 142.56 296.784 139.488 296.784 136.288C296.784 133.152 297.392 130.144 298.608 127.264C299.824 124.384 301.488 121.824 303.6 119.584C305.712 117.28 308.08 115.488 310.704 114.208C313.328 112.864 316.08 112.192 318.96 112.192C321.136 112.192 322.96 112.512 324.432 113.152C325.968 113.792 327.184 114.496 328.08 115.264C329.04 116.032 329.68 116.672 330 117.184H328.944C328.88 115.584 329.52 114.336 330.864 113.44C332.272 112.544 334.416 112.096 337.296 112.096C340.176 112.096 342.192 112.544 343.344 113.44C344.56 114.272 345.296 115.36 345.552 116.704C345.808 118.048 345.936 119.424 345.936 120.832V152.032C345.936 153.44 345.808 154.816 345.552 156.16C345.296 157.504 344.56 158.592 343.344 159.424C342.192 160.256 340.144 160.672 337.2 160.672ZM321.36 143.296C322.576 143.296 323.664 142.976 324.624 142.336C325.648 141.696 326.448 140.864 327.024 139.84C327.664 138.752 327.984 137.6 327.984 136.384C327.984 135.104 327.664 133.952 327.024 132.928C326.448 131.904 325.648 131.072 324.624 130.432C323.6 129.792 322.448 129.472 321.168 129.472C319.888 129.472 318.704 129.792 317.616 130.432C316.592 131.072 315.76 131.936 315.12 133.024C314.48 134.048 314.16 135.2 314.16 136.48C314.16 137.696 314.48 138.816 315.12 139.84C315.824 140.864 316.72 141.696 317.808 142.336C318.896 142.976 320.08 143.296 321.36 143.296ZM317.52 110.08C316.368 110.08 315.376 109.6 314.544 108.64C313.712 107.68 312.976 106.208 312.336 104.224C311.504 101.536 311.344 99.552 311.856 98.272C312.368 96.928 313.776 95.904 316.08 95.2L333.744 90.016C334.896 90.016 335.888 90.496 336.72 91.456C337.552 92.416 338.256 93.888 338.832 95.872C339.728 98.432 339.888 100.384 339.312 101.728C338.736 103.072 337.36 104.096 335.184 104.8L317.52 110.08Z" fill="white"/>
<path d="M288.763 160.864C285.819 160.864 283.227 160.736 280.987 160.48C278.811 160.224 276.955 159.712 275.419 158.944C273.883 158.176 272.635 157.088 271.675 155.68C270.715 154.208 270.011 152.32 269.563 150.016C269.115 147.648 268.891 144.704 268.891 141.184V98.656C268.891 97.184 269.019 95.808 269.275 94.528C269.531 93.184 270.267 92.096 271.483 91.264C272.699 90.368 274.747 89.92 277.627 89.92C280.507 89.92 282.523 90.368 283.675 91.264C284.891 92.096 285.627 93.184 285.883 94.528C286.139 95.872 286.267 97.28 286.267 98.752V140.128C286.267 141.088 286.267 141.856 286.267 142.432C286.331 142.944 286.427 143.328 286.555 143.584C286.747 143.84 287.003 144 287.323 144.064C287.707 144.064 288.219 144.064 288.859 144.064C289.691 144.064 290.555 144.192 291.451 144.448C292.411 144.64 293.211 145.312 293.851 146.464C294.555 147.552 294.907 149.472 294.907 152.224C294.907 155.104 294.555 157.152 293.851 158.368C293.211 159.584 292.411 160.288 291.451 160.48C290.491 160.736 289.595 160.864 288.763 160.864Z" fill="white"/>
<path d="M238.88 161.728C235.936 161.728 232.96 161.152 229.952 160C226.944 158.784 224.16 157.088 221.6 154.912C219.104 152.672 217.088 150.016 215.552 146.944C214.08 143.808 213.344 140.32 213.344 136.48C213.344 132.96 214.016 129.664 215.36 126.592C216.704 123.52 218.528 120.832 220.832 118.528C223.2 116.16 225.888 114.304 228.896 112.96C231.968 111.616 235.232 110.944 238.688 110.944C243.424 110.944 247.712 112.096 251.552 114.4C255.392 116.64 258.464 119.68 260.768 123.52C263.072 127.36 264.224 131.648 264.224 136.384C264.224 140.416 263.456 144 261.92 147.136C260.384 150.272 258.368 152.928 255.872 155.104C253.376 157.28 250.624 158.912 247.616 160C244.672 161.152 241.76 161.728 238.88 161.728ZM238.688 144.16C239.648 144.16 240.736 143.936 241.952 143.488C243.232 142.976 244.32 142.144 245.216 140.992C246.176 139.84 246.656 138.272 246.656 136.288C246.656 134.688 246.304 133.312 245.6 132.16C244.96 131.008 244.032 130.112 242.816 129.472C241.6 128.832 240.192 128.512 238.592 128.512C237.184 128.512 235.904 128.864 234.752 129.568C233.6 130.208 232.672 131.136 231.968 132.352C231.264 133.504 230.912 134.848 230.912 136.384C230.912 138.304 231.36 139.84 232.256 140.992C233.152 142.144 234.208 142.976 235.424 143.488C236.64 143.936 237.728 144.16 238.688 144.16Z" fill="white"/>
</g>
</g>
<defs>
<linearGradient id="paint0_linear_1_2" x1="1214" y1="2.99995" x2="-41" y2="423" gradientUnits="userSpaceOnUse">
<stop stop-color="#FDE68A"/>
<stop offset="0.451923" stop-color="#DEAE39"/>
<stop offset="0.75" stop-color="#CA8A04"/>
</linearGradient>
<linearGradient id="paint1_linear_1_2" x1="1214" y1="2.99995" x2="-41" y2="423" gradientUnits="userSpaceOnUse">
<stop stop-color="#FDE68A"/>
<stop offset="0.451923" stop-color="#DEAE39"/>
<stop offset="0.75" stop-color="#CA8A04"/>
</linearGradient>
<clipPath id="clip0_1_2">
<rect width="1140" height="342" fill="white"/>
</clipPath>
</defs>
</svg>
